<?xml version="1.0" encoding="utf-8"?>
<!-- Generator: Adobe Illustrator 24.1.3, SVG Export Plug-In . SVG Version: 6.00 Build 0)  -->
<svg version="1.1" xmlns="http://www.w3.org/2000/svg" xmlns:xlink="http://www.w3.org/1999/xlink" x="0px" y="0px"
	 viewBox="0 0 141.7 141.7" style="enable-background:new 0 0 141.7 141.7;" xml:space="preserve">
<style type="text/css">
	.st0{display:none;}
	.st1{display:inline;fill:#41B149;}
	.st2{display:inline;}
	.st3{fill:#FFFFFF;}
	.st4{fill:#171717;}
	.st5{fill:#F2F1F4;}
	.st6{fill:#5986C5;}
	.st7{fill:#638AC7;}
	.st8{display:inline;fill:none;stroke:#070C11;stroke-miterlimit:10;}
	.st9{display:inline;fill:#D6214E;stroke:#5986C5;stroke-miterlimit:8;}
</style>
<g id="Layer_8" class="st0">
</g>
<g id="Layer_12">
	<g id="Layer_7" class="st0">
	</g>
</g>
<g id="Background">
	<rect x="-2.4" class="st4" width="144.6" height="141.7"/>
</g>
<g id="Layer_15">
	<g id="Layer_2">
		<g id="Layer_6">
		</g>
	</g>
</g>
<g id="Layer_13">
</g>
<g id="Layer_14">
</g>
<g id="Layer_3">
</g>
<g id="Layer_4">
</g>
<g id="Layer_5">
</g>
<g id="Layer_1">
	<g>
		<path class="st3" d="M89.3,50c-0.8,1-1.2,2.3-1.2,4v5.8h7.4l-0.3,2.2h-7.2v20h-2.7v-20h-4.7v-2.2h4.7v-5.7c0-1.6,0.3-3,0.9-4.2
			c0.6-1.2,1.5-2.1,2.6-2.7c1.1-0.6,2.4-1,3.9-1c0.9,0,1.7,0.1,2.5,0.2c0.8,0.2,1.5,0.4,2.3,0.7l-0.8,2.2c-0.7-0.2-1.4-0.4-2-0.6
			c-0.6-0.1-1.2-0.2-1.9-0.2C91.3,48.5,90.1,49,89.3,50z"/>
	</g>
	<g>
		<polygon class="st3" points="51.8,59.8 51.8,46.2 44.9,46.2 44.9,70.2 		"/>
		<polygon class="st3" points="61.4,61.2 72.2,46.2 63.6,46.2 44.9,74.5 44.9,82.5 51.8,82.5 51.8,74.6 56.9,67.4 65.6,82.5 
			73.7,82.5 		"/>
	</g>
	<g>
		<polygon class="st7" points="44.9,93.1 44.9,93.1 44.9,93.1 		"/>
		<polygon class="st7" points="97.6,93.1 97.6,93.1 47.3,93.1 44.9,95.5 44.9,95.5 95.3,95.5 		"/>
	</g>
</g>
<g id="Layer_9" class="st0">
	<g id="Layer_11" class="st2">
	</g>
	<g id="_x37_vVbur.tif" class="st2">
		
			<image style="overflow:visible;" width="250" height="280" id="Layer_0_2_" xlink:href="5719A3BD2DA2EAF3.png"  transform="matrix(0.852 0 0 0.8643 -208.4162 -33.5297)">
		</image>
	</g>
</g>
</svg>
